<svg width="97" height="104" viewBox="0 0 97 104" fill="none" xmlns="http://www.w3.org/2000/svg">
<g clip-path="url(#clip0_116_1248)">
<path d="M90.32 0H6.45C2.88776 0 0 2.88776 0 6.45V12.9C0 16.4622 2.88776 19.35 6.45 19.35H90.32C93.8822 19.35 96.77 16.4622 96.77 12.9V6.45C96.77 2.88776 93.8822 0 90.32 0Z" fill="#1D2A44"/>
<path d="M45.15 0H38.7C35.1378 0 32.25 2.88776 32.25 6.45V74.19C32.25 77.7522 35.1378 80.64 38.7 80.64H45.15C48.7122 80.64 51.6 77.7522 51.6 74.19V6.45C51.6 2.88776 48.7122 0 45.15 0Z" fill="#5CA6E4"/>
<path d="M41.9402 103.22C45.5002 103.22 48.3902 100.33 48.3902 96.77C48.3902 93.21 45.5002 90.32 41.9402 90.32C38.3802 90.32 35.4902 93.21 35.4902 96.77C35.4902 100.33 38.3802 103.22 41.9402 103.22Z" fill="#C0C0C0"/>
</g>
<defs>
<clipPath id="clip0_116_1248">
<rect width="96.77" height="103.22" fill="white"/>
</clipPath>
</defs>
</svg>
